<svg width="16" height="16" viewBox="0 0 16 16" fill="none" xmlns="http://www.w3.org/2000/svg">
<path d="M14.5153 6.18473C15.3353 9.60046 13.083 13.1822 9.48467 14.1847C5.88635 15.1873 2.30463 13.231 1.48467 9.81529C0.664708 6.39956 2.91701 2.81784 6.51533 1.81529C10.1137 0.812738 13.6954 2.769 14.5153 6.18473Z" fill="white"/>
<path d="M11.5448 7.06478C11.9501 8.81633 10.6276 10.6797 8.59087 11.2268C6.55412 11.7739 4.5744 10.7975 4.16904 9.04596C3.76367 7.29441 5.08617 5.43099 7.12292 4.88391C9.15967 4.33682 11.1394 5.31323 11.5448 7.06478Z" fill="#111111"/>
<path d="M4.10352 8.45264H5.88765V14.6034H4.10352V8.45264Z" fill="#111111"/>
<path d="M10.5264 1.7299H15.3435V14.0314H10.5264V1.7299Z" fill="#111111"/>
</svg>
