<svg width="401" height="68" viewBox="0 0 401 68" fill="none" xmlns="http://www.w3.org/2000/svg">
<path d="M73.9806 24.0987C78.5764 41.8694 65.9523 60.5038 45.7839 65.7197C25.6155 70.9356 5.54016 60.7579 0.944331 42.9871C-3.6515 25.2164 8.97256 6.58201 29.141 1.36611C49.3094 -3.8498 69.3847 6.32793 73.9806 24.0987Z" fill="#111111"/>
<path d="M57.331 28.6773C59.603 37.7899 52.1905 47.4846 40.7746 50.3309C29.3587 53.1772 18.2625 48.0973 15.9904 38.9846C13.7184 29.8719 21.1309 20.1773 32.5468 17.331C43.9627 14.4847 55.0589 19.5646 57.331 28.6773Z" fill="white"/>
<path d="M15.6228 35.8977H25.6228V67.8977H15.6228V35.8977Z" fill="white"/>
<path d="M51.6228 0.897709H83.6228V64.8977H51.6228V0.897709Z" fill="white"/>
<path d="M376.459 66.4942C371.639 66.4942 367.398 65.4874 363.737 63.4737C360.076 61.3991 357.178 58.5617 355.042 54.9616C352.967 51.3615 351.93 47.2122 351.93 42.5138C351.93 37.8153 352.937 33.6661 354.95 30.0659C357.025 26.4658 359.893 23.659 363.554 21.6454C367.276 19.5707 371.486 18.5334 376.185 18.5334C381.005 18.5334 385.246 19.5707 388.907 21.6454C392.629 23.659 395.497 26.4658 397.511 30.0659C399.586 33.6661 400.623 37.8153 400.623 42.5138C400.623 47.2122 399.586 51.3615 397.511 54.9616C395.497 58.5617 392.66 61.3991 388.999 63.4737C385.338 65.4874 381.158 66.4942 376.459 66.4942ZM376.459 53.3141C378.29 53.3141 379.907 52.8565 381.31 51.9412C382.775 51.0259 383.904 49.775 384.697 48.1885C385.551 46.541 385.978 44.6494 385.978 42.5138C385.978 40.3781 385.551 38.517 384.697 36.9306C383.904 35.283 382.775 34.0017 381.31 33.0864C379.846 32.1711 378.168 31.7134 376.276 31.7134C374.385 31.7134 372.707 32.1711 371.242 33.0864C369.778 34.0017 368.619 35.283 367.764 36.9306C366.971 38.517 366.574 40.3781 366.574 42.5138C366.574 44.6494 366.971 46.541 367.764 48.1885C368.619 49.775 369.778 51.0259 371.242 51.9412C372.768 52.8565 374.507 53.3141 376.459 53.3141Z" fill="#111111"/>
<path d="M328.367 41.6901C328.367 36.7476 329.343 32.6288 331.296 29.3338C333.309 26.0388 335.811 23.5675 338.801 21.92C341.852 20.2725 345.025 19.4488 348.32 19.4488V33.361C345.513 33.361 342.859 33.6661 340.357 34.2763C337.916 34.8865 335.933 35.8323 334.408 37.1137C332.882 38.3341 332.12 39.9206 332.12 41.8732L328.367 41.6901ZM317.841 65.3959V19.6318H332.12V65.3959H317.841Z" fill="#111111"/>
<path d="M263.262 65.3959V1.32611H288.432C293.07 1.32611 297.188 2.27191 300.789 4.16349C304.389 5.99405 307.195 8.55684 309.209 11.8519C311.284 15.0859 312.321 18.869 312.321 23.2014C312.321 27.4117 311.314 31.1948 309.301 34.5508C307.348 37.8459 304.602 40.4392 301.063 42.3307C297.524 44.2223 293.466 45.1681 288.89 45.1681H277.998V65.3959H263.262ZM277.998 31.6219H288.524C291.148 31.6219 293.253 30.8592 294.839 29.3337C296.426 27.7473 297.219 25.7031 297.219 23.2014C297.219 20.6996 296.365 18.686 294.656 17.1605C293.009 15.574 290.812 14.7808 288.066 14.7808H277.998V31.6219Z" fill="#111111"/>
<path d="M238.771 65.3958L238.13 56.8837V1.32611H252.408V65.3958H238.771ZM225.133 66.4942C220.862 66.4942 217.17 65.5484 214.058 63.6568C211.007 61.7042 208.627 58.9279 206.919 55.3278C205.271 51.7276 204.448 47.4563 204.448 42.5138C204.448 37.5103 205.271 33.2389 206.919 29.6999C208.627 26.0997 211.007 23.3539 214.058 21.4623C217.17 19.5097 220.862 18.5334 225.133 18.5334C228.916 18.5334 232.089 19.5097 234.652 21.4623C237.276 23.3539 239.228 26.0997 240.51 29.6999C241.791 33.2389 242.432 37.5103 242.432 42.5138C242.432 47.4563 241.791 51.7276 240.51 55.3278C239.228 58.9279 237.276 61.7042 234.652 63.6568C232.089 65.5484 228.916 66.4942 225.133 66.4942ZM228.886 53.3141C230.655 53.3141 232.242 52.8565 233.645 51.9412C235.049 51.0259 236.147 49.775 236.94 48.1885C237.733 46.541 238.13 44.6495 238.13 42.5138C238.13 40.3781 237.733 38.5171 236.94 36.9306C236.147 35.2831 235.049 34.0017 233.645 33.0864C232.242 32.1711 230.625 31.7135 228.794 31.7135C226.964 31.7135 225.347 32.1711 223.943 33.0864C222.54 34.0017 221.411 35.2831 220.557 36.9306C219.763 38.5171 219.336 40.3781 219.275 42.5138C219.336 44.6495 219.763 46.541 220.557 48.1885C221.411 49.775 222.54 51.0259 223.943 51.9412C225.408 52.8565 227.055 53.3141 228.886 53.3141Z" fill="#111111"/>
<path d="M180.885 41.6901C180.885 36.7476 181.861 32.6288 183.814 29.3338C185.827 26.0388 188.329 23.5675 191.319 21.92C194.37 20.2725 197.543 19.4488 200.838 19.4488V33.361C198.031 33.361 195.377 33.6661 192.875 34.2763C190.434 34.8865 188.451 35.8323 186.926 37.1137C185.4 38.3341 184.637 39.9206 184.637 41.8732L180.885 41.6901ZM170.359 65.3959V19.6318H184.637V65.3959H170.359Z" fill="#111111"/>
<path d="M139.237 66.4942C134.416 66.4942 130.175 65.4874 126.514 63.4737C122.853 61.3991 119.955 58.5617 117.819 54.9616C115.744 51.3615 114.707 47.2122 114.707 42.5138C114.707 37.8153 115.714 33.6661 117.727 30.0659C119.802 26.4658 122.67 23.659 126.331 21.6454C130.053 19.5707 134.263 18.5334 138.962 18.5334C143.782 18.5334 148.023 19.5707 151.684 21.6454C155.407 23.659 158.274 26.4658 160.288 30.0659C162.363 33.6661 163.4 37.8153 163.4 42.5138C163.4 47.2122 162.363 51.3615 160.288 54.9616C158.274 58.5617 155.437 61.3991 151.776 63.4737C148.115 65.4874 143.935 66.4942 139.237 66.4942ZM139.237 53.3141C141.067 53.3141 142.684 52.8565 144.088 51.9412C145.552 51.0259 146.681 49.775 147.474 48.1885C148.328 46.541 148.755 44.6494 148.755 42.5138C148.755 40.3781 148.328 38.517 147.474 36.9306C146.681 35.283 145.552 34.0017 144.088 33.0864C142.623 32.1711 140.945 31.7134 139.053 31.7134C137.162 31.7134 135.484 32.1711 134.019 33.0864C132.555 34.0017 131.396 35.283 130.541 36.9306C129.748 38.517 129.351 40.3781 129.351 42.5138C129.351 44.6494 129.748 46.541 130.541 48.1885C131.396 49.775 132.555 51.0259 134.019 51.9412C135.545 52.8565 137.284 53.3141 139.237 53.3141Z" fill="#111111"/>
<path d="M64.6228 65.3959V1.32611H78.9012V65.3959H64.6228ZM94.0949 65.3959V41.9646H108.373V65.3959H94.0949ZM94.0949 41.9646C94.0949 39.5239 93.8203 37.6018 93.2711 36.1984C92.722 34.7339 91.9287 33.6661 90.8914 32.9949C89.8541 32.3237 88.6337 31.9576 87.2303 31.8965C84.4844 31.8355 82.4098 32.5983 81.0064 34.1847C79.6029 35.7102 78.9012 38.0594 78.9012 41.2324H74.5994C74.5994 36.4119 75.3316 32.3237 76.7961 28.9676C78.2605 25.5506 80.2436 22.9573 82.7454 21.1877C85.3082 19.4182 88.2371 18.5334 91.5321 18.5334C95.2542 18.5334 98.3662 19.2962 100.868 20.8216C103.37 22.2861 105.231 24.5438 106.451 27.5947C107.733 30.6456 108.373 34.5509 108.373 39.3103V41.9646H94.0949Z" fill="#111111"/>
<path d="M57.331 28.6773C59.603 37.7899 52.1905 47.4846 40.7746 50.3309C29.3587 53.1772 18.2625 48.0973 15.9904 38.9846C13.7184 29.8719 21.1309 20.1773 32.5468 17.331C43.9627 14.4847 55.0589 19.5646 57.331 28.6773Z" fill="white"/>
<path d="M15.6228 35.8977H25.6228V67.8977H15.6228V35.8977Z" fill="white"/>
</svg>
