<svg width="401" height="68" viewBox="0 0 401 68" fill="none" xmlns="http://www.w3.org/2000/svg">
<path d="M74.3578 24.201C78.9536 41.9717 66.3295 60.6061 46.1611 65.822C25.9927 71.0379 5.91736 60.8602 1.32153 43.0894C-3.2743 25.3187 9.34976 6.6843 29.5182 1.4684C49.6866 -3.7475 69.7619 6.43022 74.3578 24.201Z" fill="white"/>
<path d="M57.7082 28.7796C59.9802 37.8922 52.5677 47.5869 41.1518 50.4332C29.7359 53.2795 18.6397 48.1996 16.3676 39.0869C14.0956 29.9742 21.5081 20.2796 32.924 17.4333C44.3399 14.587 55.4361 19.6669 57.7082 28.7796Z" fill="#111111"/>
<path d="M16 36H26V68H16V36Z" fill="#111111"/>
<path d="M52 1H84V65H52V1Z" fill="#111111"/>
<path d="M376.837 66.5965C372.016 66.5965 367.775 65.5897 364.114 63.576C360.453 61.5014 357.555 58.664 355.419 55.0639C353.344 51.4638 352.307 47.3145 352.307 42.6161C352.307 37.9176 353.314 33.7683 355.328 30.1682C357.402 26.5681 360.27 23.7613 363.931 21.7476C367.653 19.673 371.864 18.6357 376.562 18.6357C381.383 18.6357 385.623 19.673 389.284 21.7476C393.007 23.7613 395.875 26.5681 397.888 30.1682C399.963 33.7683 401 37.9176 401 42.6161C401 47.3145 399.963 51.4638 397.888 55.0639C395.875 58.664 393.037 61.5014 389.376 63.576C385.715 65.5897 381.535 66.5965 376.837 66.5965ZM376.837 53.4164C378.667 53.4164 380.284 52.9588 381.688 52.0435C383.152 51.1282 384.281 49.8773 385.074 48.2908C385.928 46.6433 386.356 44.7517 386.356 42.6161C386.356 40.4804 385.928 38.6193 385.074 37.0329C384.281 35.3853 383.152 34.104 381.688 33.1887C380.223 32.2734 378.545 31.8157 376.654 31.8157C374.762 31.8157 373.084 32.2734 371.62 33.1887C370.155 34.104 368.996 35.3853 368.141 37.0329C367.348 38.6193 366.952 40.4804 366.952 42.6161C366.952 44.7517 367.348 46.6433 368.141 48.2908C368.996 49.8773 370.155 51.1282 371.62 52.0435C373.145 52.9588 374.884 53.4164 376.837 53.4164Z" fill="white"/>
<path d="M328.744 41.7924C328.744 36.8499 329.72 32.7311 331.673 29.4361C333.687 26.1411 336.188 23.6698 339.178 22.0223C342.229 20.3748 345.402 19.551 348.697 19.551V33.4633C345.89 33.4633 343.236 33.7684 340.734 34.3786C338.293 34.9888 336.31 35.9346 334.785 37.216C333.259 38.4364 332.497 40.0229 332.497 41.9755L328.744 41.7924ZM318.218 65.4982V19.7341H332.497V65.4982H318.218Z" fill="white"/>
<path d="M263.639 65.4981V1.42841H288.809C293.447 1.42841 297.566 2.3742 301.166 4.26579C304.766 6.09635 307.573 8.65914 309.586 11.9542C311.661 15.1882 312.698 18.9713 312.698 23.3036C312.698 27.5139 311.691 31.2971 309.678 34.6531C307.725 37.9482 304.979 40.5415 301.44 42.433C297.901 44.3246 293.843 45.2704 289.267 45.2704H278.375V65.4981H263.639ZM278.375 31.7242H288.901C291.525 31.7242 293.63 30.9615 295.216 29.436C296.803 27.8495 297.596 25.8054 297.596 23.3036C297.596 20.8019 296.742 18.7883 295.033 17.2628C293.386 15.6763 291.189 14.8831 288.443 14.8831H278.375V31.7242Z" fill="white"/>
<path d="M239.148 65.4981L238.507 56.986V1.42841H252.786V65.4981H239.148ZM225.51 66.5965C221.239 66.5965 217.547 65.6507 214.435 63.7591C211.384 61.8065 209.005 59.0302 207.296 55.43C205.649 51.8299 204.825 47.5586 204.825 42.6161C204.825 37.6126 205.649 33.3412 207.296 29.8021C209.005 26.202 211.384 23.4562 214.435 21.5646C217.547 19.612 221.239 18.6357 225.51 18.6357C229.293 18.6357 232.466 19.612 235.029 21.5646C237.653 23.4562 239.606 26.202 240.887 29.8021C242.168 33.3412 242.809 37.6126 242.809 42.6161C242.809 47.5586 242.168 51.8299 240.887 55.43C239.606 59.0302 237.653 61.8065 235.029 63.7591C232.466 65.6507 229.293 66.5965 225.51 66.5965ZM229.263 53.4164C231.032 53.4164 232.619 52.9588 234.022 52.0435C235.426 51.1282 236.524 49.8773 237.317 48.2908C238.111 46.6433 238.507 44.7518 238.507 42.6161C238.507 40.4804 238.111 38.6194 237.317 37.0329C236.524 35.3854 235.426 34.104 234.022 33.1887C232.619 32.2734 231.002 31.8158 229.171 31.8158C227.341 31.8158 225.724 32.2734 224.32 33.1887C222.917 34.104 221.788 35.3854 220.934 37.0329C220.141 38.6194 219.713 40.4804 219.652 42.6161C219.713 44.7518 220.141 46.6433 220.934 48.2908C221.788 49.8773 222.917 51.1282 224.32 52.0435C225.785 52.9588 227.432 53.4164 229.263 53.4164Z" fill="white"/>
<path d="M181.262 41.7924C181.262 36.8499 182.238 32.7311 184.191 29.4361C186.204 26.1411 188.706 23.6698 191.696 22.0223C194.747 20.3748 197.92 19.551 201.215 19.551V33.4633C198.408 33.4633 195.754 33.7684 193.252 34.3786C190.811 34.9888 188.828 35.9346 187.303 37.216C185.777 38.4364 185.014 40.0229 185.014 41.9755L181.262 41.7924ZM170.736 65.4982V19.7341H185.014V65.4982H170.736Z" fill="white"/>
<path d="M139.614 66.5965C134.793 66.5965 130.552 65.5897 126.891 63.576C123.23 61.5014 120.332 58.664 118.196 55.0639C116.121 51.4638 115.084 47.3145 115.084 42.6161C115.084 37.9176 116.091 33.7683 118.105 30.1682C120.179 26.5681 123.047 23.7613 126.708 21.7476C130.43 19.673 134.641 18.6357 139.339 18.6357C144.16 18.6357 148.4 19.673 152.062 21.7476C155.784 23.7613 158.652 26.5681 160.665 30.1682C162.74 33.7683 163.777 37.9176 163.777 42.6161C163.777 47.3145 162.74 51.4638 160.665 55.0639C158.652 58.664 155.814 61.5014 152.153 63.576C148.492 65.5897 144.312 66.5965 139.614 66.5965ZM139.614 53.4164C141.444 53.4164 143.061 52.9588 144.465 52.0435C145.929 51.1282 147.058 49.8773 147.851 48.2908C148.706 46.6433 149.133 44.7517 149.133 42.6161C149.133 40.4804 148.706 38.6193 147.851 37.0329C147.058 35.3853 145.929 34.104 144.465 33.1887C143 32.2734 141.322 31.8157 139.431 31.8157C137.539 31.8157 135.861 32.2734 134.397 33.1887C132.932 34.104 131.773 35.3853 130.919 37.0329C130.125 38.6193 129.729 40.4804 129.729 42.6161C129.729 44.7517 130.125 46.6433 130.919 48.2908C131.773 49.8773 132.932 51.1282 134.397 52.0435C135.922 52.9588 137.661 53.4164 139.614 53.4164Z" fill="white"/>
<path d="M65 65.4981V1.42841H79.2784V65.4981H65ZM94.4721 65.4981V42.0669H108.75V65.4981H94.4721ZM94.4721 42.0669C94.4721 39.6262 94.1975 37.7041 93.6483 36.3007C93.0992 34.8362 92.3059 33.7684 91.2686 33.0972C90.2313 32.426 89.0109 32.0598 87.6075 31.9988C84.8616 31.9378 82.787 32.7005 81.3836 34.287C79.9801 35.8125 79.2784 38.1617 79.2784 41.3347H74.9766C74.9766 36.5142 75.7088 32.426 77.1732 29.0699C78.6377 25.6529 80.6208 23.0596 83.1226 21.29C85.6854 19.5205 88.6143 18.6357 91.9093 18.6357C95.6314 18.6357 98.7434 19.3984 101.245 20.9239C103.747 22.3884 105.608 24.6461 106.828 27.697C108.11 30.7479 108.75 34.6531 108.75 39.4126V42.0669H94.4721Z" fill="white"/>
</svg>
